<svg id="ico-20-bike" xmlns="http://www.w3.org/2000/svg" width="20" height="20" viewBox="0 0 20 20">
  <rect id="Rectangle_80" data-name="Rectangle 80" width="20" height="20" fill="#bdbdbd" opacity="0"/>
  <path id="Path_152" data-name="Path 152" d="M3,11.334a.833.833,0,1,1-.833-.834A.832.832,0,0,1,3,11.334M2.166,9.166a2.167,2.167,0,1,0,2.168,2.168A2.167,2.167,0,0,0,2.166,9.166m14.168,2.168A.833.833,0,1,1,15.5,10.5a.832.832,0,0,1,.832.834M15.5,9.166a2.167,2.167,0,1,0,2.168,2.168A2.167,2.167,0,0,0,15.5,9.166m1.871-3.041A5.826,5.826,0,0,1,20,11a.334.334,0,0,1-.332.332h-1a3.167,3.167,0,0,0-6.334,0h-7A3.168,3.168,0,0,0,2.169,8.166a3.265,3.265,0,0,0-.639.064.666.666,0,1,1-.269-1.305,4.55,4.55,0,0,1,2.183.091l1.9-4.075-.876.366A.336.336,0,0,1,4,3V.334a.325.325,0,0,1,.15-.277.324.324,0,0,1,.313-.03L6.921,1.05a.667.667,0,0,1,.354.894l-.309.662A9.927,9.927,0,0,0,6.468,10h2.7A1.836,1.836,0,0,0,11,8.166v-2h6a1.712,1.712,0,0,0,.37-.041M11,5.166a.667.667,0,1,1,0-1.334h6a.667.667,0,1,1,0,1.334Z" transform="translate(0 3)" fill="#bdbdbd" fill-rule="evenodd"/>
</svg>
