<svg id="ico-20-truck" xmlns="http://www.w3.org/2000/svg" width="20" height="20" viewBox="0 0 20 20">
  <rect id="Rectangle_80" data-name="Rectangle 80" width="20" height="20" fill="#bdbdbd" opacity="0"/>
  <path id="Path_150" data-name="Path 150" d="M6.666,11.5a.833.833,0,1,1-.833-.834.833.833,0,0,1,.833.834M5.834,9.334A2.166,2.166,0,1,0,8,11.5,2.166,2.166,0,0,0,5.834,9.334m9.5,2.166a.833.833,0,1,1-.834-.834.834.834,0,0,1,.834.834M14.5,9.334A2.166,2.166,0,1,0,16.666,11.5,2.166,2.166,0,0,0,14.5,9.334M4.667,2.666A3.344,3.344,0,0,0,1.354,5.629.335.335,0,0,0,1.686,6a1.17,1.17,0,0,0,.6-.154A6.479,6.479,0,0,1,5.5,5h.832a.334.334,0,0,0,.334-.334V3a.334.334,0,0,0-.334-.334ZM7.334,1.334A.669.669,0,0,1,8,2V9.191A3.167,3.167,0,0,0,2.706,11H2A2,2,0,0,1,0,9V6A4.677,4.677,0,0,1,4.667,1.334Zm1.666,9A.669.669,0,0,0,9.667,11h1.7a3.167,3.167,0,0,1,6.255,0h1.706A.668.668,0,0,0,20,10.334V.666A.668.668,0,0,0,19.334,0H9.667A.669.669,0,0,0,9,.666Z" transform="translate(0 3)" fill="#bdbdbd" fill-rule="evenodd"/>
</svg>
