<svg id="ico-20-car" xmlns="http://www.w3.org/2000/svg" width="20" height="20" viewBox="0 0 20 20">
  <rect id="Rectangle_80" data-name="Rectangle 80" width="20" height="20" fill="#bdbdbd" opacity="0"/>
  <path id="Path_149" data-name="Path 149" d="M5.834,8.5A.833.833,0,1,1,5,7.666a.834.834,0,0,1,.834.834M5,6.5a2,2,0,1,0,2,2,2,2,0,0,0-2-2m10.835,2A.834.834,0,1,1,15,7.666a.834.834,0,0,1,.834.834M15,6.5a2,2,0,1,0,2,2,2,2,0,0,0-2-2M10.043,1.165A3.988,3.988,0,0,0,7.1,2.386l-.544.544a.334.334,0,0,0,.236.57h4.46a.333.333,0,0,0,.334-.332V1.5a.334.334,0,0,0-.334-.334Zm2.742.026a.333.333,0,0,0-.369.332V3.166a.334.334,0,0,0,.333.334h2.8a.333.333,0,0,0,.235-.569l-.542-.543a3.958,3.958,0,0,0-2.452-1.2m-6.514.37A5.155,5.155,0,0,1,10.043,0H12.29a5.15,5.15,0,0,1,3.771,1.562L18,3.5a2.005,2.005,0,0,1,2,2v1a2,2,0,0,1-2,2,3,3,0,0,0-6,0H8a3,3,0,0,0-6,0,2,2,0,0,1-2-2V5.882A1.99,1.99,0,0,1,1.7,3.9L4.334,3.5Z" transform="translate(0 5)" fill="#bdbdbd" fill-rule="evenodd"/>
</svg>
