<svg id="ico-20-bus" xmlns="http://www.w3.org/2000/svg" width="20" height="20" viewBox="0 0 20 20">
  <rect id="Rectangle_80" data-name="Rectangle 80" width="20" height="20" fill="#bdbdbd" opacity="0"/>
  <path id="Path_151" data-name="Path 151" d="M16,9.666a.5.5,0,1,1-.5-.5.5.5,0,0,1,.5.5m-.5-1.5a1.5,1.5,0,1,0,1.5,1.5,1.5,1.5,0,0,0-1.5-1.5M5,9.666a.5.5,0,1,1-.5-.5.5.5,0,0,1,.5.5m-.5-1.5A1.5,1.5,0,1,0,6,9.665a1.5,1.5,0,0,0-1.5-1.5M20,2a2,2,0,0,0-2-2H2.77A1.978,1.978,0,0,0,.83,1.515L.2,4.036A6.363,6.363,0,0,0,0,5.654V8.666a1,1,0,0,0,1,1H2a2.5,2.5,0,1,1,5,0h6a2.5,2.5,0,1,1,5,0h1a1,1,0,0,0,1-1ZM5.666,1.333A.167.167,0,0,0,5.5,1.5V3.166a.167.167,0,0,0,.166.166H7.875a.167.167,0,0,0,.166-.166V1.5a.167.167,0,0,0-.166-.166Zm3.543,0a.166.166,0,0,0-.166.166V3.166a.166.166,0,0,0,.166.166h2.208a.166.166,0,0,0,.166-.166V1.5a.166.166,0,0,0-.166-.166Zm3.541,0a.166.166,0,0,0-.166.166V3.166a.166.166,0,0,0,.166.166h2.209a.167.167,0,0,0,.166-.166V1.5a.167.167,0,0,0-.166-.166Zm5.916.658A.668.668,0,0,0,18,1.333H16.291a.167.167,0,0,0-.166.166V3.166a.167.167,0,0,0,.167.166H18.5a.167.167,0,0,0,.166-.16ZM2.77,1.333a.646.646,0,0,0-.646.505L1.738,3.38a.334.334,0,0,0,.445.391,6.331,6.331,0,0,1,2.156-.437A.166.166,0,0,0,4.5,3.168V1.5a.167.167,0,0,0-.166-.166Z" transform="translate(0 4)" fill="#bdbdbd" fill-rule="evenodd"/>
</svg>
